<svg xmlns="http://www.w3.org/2000/svg" style="display:none"><symbol id="pin" viewBox="0 0 7.076 9.869"><g transform="translate(3.539 4.936)"><path d="M3.539 0a3.531 3.531 0 0 0-3.4 4.5 12.435 12.435 0 0 0 3.4 5.362A12.425 12.425 0 0 0 6.94 4.5 3.531 3.531 0 0 0 3.539 0zm0 5.141a1.6 1.6 0 1 1 1.6-1.6 1.6 1.6 0 0 1-1.6 1.6z" transform="translate(-3.538 -4.935)"/></g></symbol><symbol id="star" viewBox="0 0 30 30"><path d="M14.744 0l3.827 10.413 10.916.485-8.551 6.92 2.92 10.714-9.112-6.136-9.112 6.136 2.92-10.713L0 10.899l10.917-.486z" fill-rule="evenodd"/></symbol></svg>